<svg xmlns="http://www.w3.org/2000/svg" width="101" height="30" viewBox="0 0 101 30">
    <g fill="none" fill-rule="evenodd">
        <path fill="#FFF" fill-rule="nonzero" d="M21.026 2.607l6.412.559a2.799 2.799 0 0 1 2.553 3.028l-1.34 15.24a2.804 2.804 0 0 1-3.041 2.54l-.814-.07-3.77-21.297zM3.148 2.041L14.142.111a3.742 3.742 0 0 1 4.338 3.031l3.57 20.43a3.728 3.728 0 0 1-3.038 4.31L8.018 29.807a3.742 3.742 0 0 1-4.337-3.031L.11 6.35A3.728 3.728 0 0 1 3.147 2.04z"/>
        <path fill="#000" d="M48.983 20.07v1.423a.934.934 0 0 1-.936.932h-.794c-1.467 0-2.609-.362-3.425-1.085-.816-.723-1.224-1.919-1.224-3.588v-4.584h-.749a.934.934 0 0 1-.935-.931V10.88c0-.514.419-.931.935-.931h.75V7.817c0-.514.418-.931.935-.931h1.969c.517 0 .936.417.936.931V9.95h1.58c.516 0 .935.417.935.931v1.357a.934.934 0 0 1-.935.931h-1.58v4.65c0 .493.1.836.303 1.03.202.193.543.29 1.022.29h.277c.517 0 .936.417.936.932zM57 9.792c1.243 0 2.355.257 3.336.772a5.67 5.67 0 0 1 2.313 2.224c.561.97.842 2.102.842 3.399 0 1.296-.28 2.43-.842 3.398a5.67 5.67 0 0 1-2.313 2.225c-.981.514-2.093.771-3.336.771-1.243 0-2.358-.257-3.346-.771a5.652 5.652 0 0 1-2.325-2.225c-.562-.969-.842-2.102-.842-3.398 0-1.297.28-2.43.842-3.399a5.652 5.652 0 0 1 2.325-2.224c.988-.515 2.103-.772 3.346-.772zm0 3.31c-.734 0-1.351.264-1.853.793-.501.53-.752 1.293-.752 2.292 0 .998.25 1.759.752 2.28a2.47 2.47 0 0 0 1.853.783c.734 0 1.348-.261 1.842-.783.494-.521.741-1.282.741-2.28 0-.999-.247-1.763-.741-2.292A2.417 2.417 0 0 0 57 13.101zm13.252-3.31c.958 0 1.782.216 2.47.649a3.903 3.903 0 0 1 1.528 1.766V10.88c0-.514.419-.931.936-.931h1.946c.517 0 .936.417.936.931v10.613a.934.934 0 0 1-.936.932h-1.946a.934.934 0 0 1-.936-.932v-1.327a3.903 3.903 0 0 1-1.528 1.767c-.688.432-1.512.648-2.47.648-1.033 0-1.958-.257-2.774-.771-.816-.514-1.46-1.256-1.932-2.225-.471-.969-.707-2.102-.707-3.398 0-1.312.236-2.449.707-3.41.472-.961 1.116-1.7 1.932-2.213.816-.515 1.74-.772 2.774-.772zm1.235 3.354c-.823 0-1.486.268-1.988.805-.501.536-.752 1.282-.752 2.236 0 .954.25 1.699.752 2.236.502.536 1.165.804 1.988.804.809 0 1.471-.275 1.988-.827.516-.551.775-1.29.775-2.213 0-.94-.259-1.68-.775-2.225-.517-.544-1.18-.816-1.988-.816zm13.79-3.354c1.588 0 2.857.395 3.808 1.185a4.986 4.986 0 0 1 1.464 2.007.818.818 0 0 1-.764 1.123h-1.853a.936.936 0 0 1-.855-.553 1.52 1.52 0 0 0-.135-.249 1.873 1.873 0 0 0-.373-.394c-.367-.29-.827-.436-1.381-.436-.434 0-.764.093-.988.28-.225.186-.337.45-.337.793 0 .388.206.679.617.872.412.194 1.06.388 1.943.582.959.223 1.745.45 2.359.682a3.89 3.89 0 0 1 1.594 1.129c.45.521.674 1.222.674 2.101 0 .716-.195 1.35-.584 1.9-.39.552-.95.985-1.684 1.298-.734.313-1.603.47-2.606.47-1.692 0-3.047-.373-4.065-1.119a4.48 4.48 0 0 1-1.581-2.105.81.81 0 0 1 .764-1.092h1.952c.385 0 .731.235.872.592.027.07.056.129.085.176.11.18.255.334.435.462.396.283.91.425 1.538.425.434 0 .764-.101.988-.302.225-.202.337-.466.337-.794 0-.432-.206-.742-.617-.928-.412-.186-1.082-.384-2.01-.592-.929-.194-1.693-.403-2.292-.626a3.782 3.782 0 0 1-1.55-1.085c-.434-.5-.65-1.181-.65-2.046 0-1.117.426-2.023 1.28-2.716.853-.693 2.058-1.04 3.616-1.04zm15.004 10.278v1.423a.934.934 0 0 1-.936.932h-.793c-1.468 0-2.61-.362-3.425-1.085-.816-.723-1.225-1.919-1.225-3.588v-4.584h-.748a.934.934 0 0 1-.936-.931V10.88c0-.514.419-.931.936-.931h.748V7.817c0-.514.42-.931.936-.931h1.97c.516 0 .935.417.935.931V9.95h1.58c.517 0 .936.417.936.931v1.357a.934.934 0 0 1-.936.931h-1.58v4.65c0 .493.101.836.303 1.03.203.193.543.29 1.022.29h.277c.517 0 .936.417.936.932z"/>
    </g>
</svg>
